<?xml version="1.0" ?><svg xmlns="http://www.w3.org/2000/svg" xmlns:xlink="http://www.w3.org/1999/xlink" version="1.1" viewBox="0 0 512 512" style="enable-background:new 0 0 512 512;" xml:space="preserve"><g id="_x34_7_x2C__kaaba_x2C__religion_x2C__islam_x2C__hajj_x2C__islamic_x2C__architecture_and_city"><g><g><path style="fill:#474556;" d="M486,263.5v155l-219,15l-241-15v-155l15-25l-15-25v-40l237.5-10l222.5,10v40l-13,25L486,263.5z"/><polygon style="fill:#BA7F54;" points="306,418.5 316,430.829 306,443.5 277,453.5 246,443.5 236,429.75 246,418.5    "/><polygon style="fill:#C7955F;" points="486,418.5 486,443.5 436,453.5 396,443.5 386,430 396,418.5    "/><polygon style="fill:#AF6849;" points="396,418.5 396,443.5 348,453.5 306,443.5 306,418.5    "/><polygon style="fill:#C7955F;" points="246,418.5 246,443.5 221,453.5 196,443.5 186,433.5 196,418.5    "/><polygon style="fill:#BA7F54;" points="436,443.5 446,463.5 436,483.5 356,483.5 346,463.5 356,443.5 396,443.5    "/><polygon style="fill:#AF6849;" points="271,443.5 281,463.5 271,483.5 226,483.5 216,463.5 226,443.5 246,443.5    "/><polygon style="fill:#C7955F;" points="56,418.5 66,431 56,443.5 41.333,453.5 26,443.5 26,418.5    "/><polygon style="fill:#AF6849;" points="116.5,433.5 106,443.5 81,453.5 56,443.5 56,418.5 106,418.5    "/><rect x="436" y="443.5" style="fill:#AF6849;" width="50" height="40"/><polygon style="fill:#C7955F;" points="356,443.5 356,483.5 271,483.5 271,443.5 306,443.5    "/><polygon style="fill:#BA7F54;" points="226,443.5 226,483.5 196,483.5 186,463.5 196,443.5    "/><polygon style="fill:#BA7F54;" points="76,443.5 86.25,463.5 76,483.5 26,483.5 26,443.5 56,443.5    "/><rect x="76" y="443.5" style="fill:#C7955F;" width="30" height="40"/><polygon style="fill:#474556;" points="486,13.5 486,113.5 263.5,123.5 26,113.5 26,13.5    "/><rect x="26" y="113.5" style="fill:#E6C34F;" width="460" height="60"/><path style="fill:#474556;" d="M506,468.5v30H6v-30C6.225,468.5,538.421,468.5,506,468.5z"/><polygon style="fill:#353544;" points="151,283.5 159.5,338.5 151,393.5 137.75,398.5 127.09,393.5 127.09,283.5    "/><polygon style="fill:#2A2A36;" points="151,283.5 174.91,283.5 174.91,393.5 162.955,398.5 151,393.5    "/><path style="fill:#5D3E29;" d="M196,433.5l-45,13.167L106,433.5c0-28.733,0-12.472,0-40h90V433.5z"/><polygon style="fill:#503825;" points="196,443.5 196,468.5 106,468.5 106,443.5 106,433.5 196,433.5    "/><rect x="446" y="213.5" style="fill:#E6C34F;" width="40" height="50"/><rect x="306" y="213.5" style="fill:#E6C34F;" width="110" height="50"/><rect x="236" y="213.5" style="fill:#E6C34F;" width="40" height="50"/><polygon style="fill:#E6C34F;" points="206,213.5 206,398.5 196,398.5 176,398.5 174.91,393.5 151,283.5 127.09,393.5 126,398.5      106,398.5 96,398.5 96,213.5    "/><rect x="26" y="213.5" style="fill:#E6C34F;" width="40" height="50"/><path d="M506,463.5h-15c0-15.394,0-434.619,0-450c0-2.762-2.238-5-5-5H26c-2.762,0-5,2.238-5,5c0,14.298,0,447.521,0,450H6     c-2.762,0-5,2.238-5,5v30c0,2.762,2.238,5,5,5h500c2.762,0,5-2.238,5-5v-30C511,465.738,508.762,463.5,506,463.5z M361,463.5v-15     h70v15H361z M276,463.5v-15h75v15H276z M231,463.5v-15h35v15H231z M201,463.5v-15h20v15H201z M81,463.5v-15h20v15H81z M31,463.5     v-15h40v15H31z M401,438.5v-15h80v15H401z M311,438.5v-15h80v15H311z M251,438.5v-15h50v15H251z M201,438.5v-15h40v15H201z      M61,438.5v-15h40v15H61z M31,438.5v-15h20v15H31z M31,218.5h30v40H31V218.5z M66,268.5c2.762,0,5-2.238,5-5v-50     c0-2.762-2.238-5-5-5H31v-30h450v30h-35c-2.762,0-5,2.238-5,5v50c0,2.762,2.238,5,5,5h35v145H201v-10h5c2.762,0,5-2.238,5-5v-185     c0-2.762-2.238-5-5-5H96c-2.762,0-5,2.238-5,5v185c0,2.762,2.238,5,5,5h5v10H31v-145H66z M481,258.5h-30v-40h30V258.5z      M133.291,388.5L146,330.04v58.46H133.291z M156,330.043l12.706,58.457H156V330.043z M179.809,392.495     c0-0.002-0.001-0.004-0.001-0.006c-25.683-118.154-23.918-110.244-24.191-110.904c-0.88-2.112-3.265-3.575-5.869-2.907     c-2.052,0.532-3.359,2.226-3.647,3.822c-2.471,11.368-21.58,99.277-24.128,111.001H101v-175h100v175h-20.973L179.809,392.495z      M111,403.5h15c2.352,0,4.385-1.638,4.886-3.936l0.231-1.064h39.765l0.232,1.064c0.501,2.298,2.534,3.936,4.886,3.936h15v25h-80     V403.5z M481,168.5H31v-50h450V168.5z M111,438.5h80v25h-80V438.5z M441,448.5h40v15h-40V448.5z M481,18.5v90H31v-90H481z      M501,493.5H11v-20c23.565,0,465.259,0,490,0V493.5z"/><path d="M236,268.5h40c2.762,0,5-2.238,5-5v-50c0-2.762-2.238-5-5-5h-40c-2.762,0-5,2.238-5,5v50     C231,266.262,233.238,268.5,236,268.5z M241,218.5h30v40h-30V218.5z"/><path d="M306,268.5h110c2.762,0,5-2.238,5-5v-50c0-2.762-2.238-5-5-5H306c-2.762,0-5,2.238-5,5v50     C301,266.262,303.238,268.5,306,268.5z M311,218.5h100v40H311V218.5z"/></g></g></g><g id="Layer_1"/></svg>